
<global>
amp_veltrack=0
ampeg_release=1.50
xf_cccurve=gain
xfin_hicc1=127
xfout_hicc1=127
xfout_locc1=127
</global>

<group>
group_label=RR1
seq_length=4
seq_position=1

<region>
hikey=A#5
hivel=127
lokey=A5
lovel=0
offset=496
pitch_keycenter=A#5
sample=Piccolo_overblown_stacc_FF_A#4_RR1.opus
tune=-30.00
</region>

<region>
hikey=A#6
hivel=127
lokey=A6
lovel=0
offset=525
pitch_keycenter=A#6
sample=Piccolo_overblown_stacc_FF_A#5_RR1.opus
tune=-30.00
</region>

<region>
hikey=A#7
hivel=127
lokey=A7
lovel=0
offset=804
pitch_keycenter=A#7
sample=Piccolo_overblown_stacc_FF_A#6_RR1.opus
tune=-30.00
</region>

<region>
hikey=C6
hivel=127
lokey=B5
lovel=0
offset=9
pitch_keycenter=C6
sample=Piccolo_overblown_stacc_FF_C5_RR1.opus
tune=-30.00
</region>

<region>
hikey=C7
hivel=127
lokey=B6
lovel=0
offset=629
pitch_keycenter=C7
sample=Piccolo_overblown_stacc_FF_C6_RR1.opus
tune=-30.00
</region>

<region>
hikey=C8
hivel=127
lokey=B7
lovel=0
offset=1078
pitch_keycenter=C8
sample=Piccolo_overblown_stacc_FF_C7_RR1.opus
tune=-30.00
</region>

<region>
hivel=127
key=D5
lovel=0
offset=1410
sample=Piccolo_overblown_stacc_FF_D4_RR1.opus
tune=-30.00
</region>

<region>
hikey=D6
hivel=127
lokey=C#6
lovel=0
offset=233
pitch_keycenter=D6
sample=Piccolo_overblown_stacc_FF_D5_RR1.opus
tune=-30.00
</region>

<region>
hikey=D7
hivel=127
lokey=C#7
lovel=0
offset=194
pitch_keycenter=D7
sample=Piccolo_overblown_stacc_FF_D6_RR1.opus
tune=-30.00
</region>

<region>
hikey=E5
hivel=127
lokey=D#5
lovel=0
offset=4184
pitch_keycenter=E5
sample=Piccolo_overblown_stacc_FF_E4_RR1.opus
tune=-30.00
</region>

<region>
hikey=E6
hivel=127
lokey=D#6
lovel=0
offset=457
pitch_keycenter=E6
sample=Piccolo_overblown_stacc_FF_E5_RR1.opus
tune=-30.00
</region>

<region>
hikey=E7
hivel=127
lokey=D#7
lovel=0
offset=643
pitch_keycenter=E7
sample=Piccolo_overblown_stacc_FF_E6_RR1.opus
tune=-30.00
</region>

<region>
hikey=F#5
hivel=127
lokey=F5
lovel=0
offset=593
pitch_keycenter=F#5
sample=Piccolo_overblown_stacc_FF_F#4_RR1.opus
tune=-30.00
</region>

<region>
hikey=F#6
hivel=127
lokey=F6
lovel=0
offset=3846
pitch_keycenter=F#6
sample=Piccolo_overblown_stacc_FF_F#5_RR1.opus
tune=-30.00
</region>

<region>
hikey=F#7
hivel=127
lokey=F7
lovel=0
offset=218
pitch_keycenter=F#7
sample=Piccolo_overblown_stacc_FF_F#6_RR1.opus
tune=-30.00
</region>

<region>
hikey=G#5
hivel=127
lokey=G5
lovel=0
offset=637
pitch_keycenter=G#5
sample=Piccolo_overblown_stacc_FF_G#4_RR1.opus
tune=-30.00
</region>

<region>
hikey=G#6
hivel=127
lokey=G6
lovel=0
offset=106
pitch_keycenter=G#6
sample=Piccolo_overblown_stacc_FF_G#5_RR1.opus
tune=-30.00
</region>

<region>
hikey=G#7
hivel=127
lokey=G7
lovel=0
offset=738
pitch_keycenter=G#7
sample=Piccolo_overblown_stacc_FF_G#6_RR1.opus
tune=-30.00
</region>
</group>

<group>
group_label=RR2
seq_length=4
seq_position=2

<region>
hikey=A#5
hivel=127
lokey=A5
lovel=0
offset=492
pitch_keycenter=A#5
sample=Piccolo_overblown_stacc_FF_A#4_RR2.opus
tune=-30.00
</region>

<region>
hikey=A#6
hivel=127
lokey=A6
lovel=0
offset=525
pitch_keycenter=A#6
sample=Piccolo_overblown_stacc_FF_A#5_RR2.opus
tune=-30.00
</region>

<region>
hikey=A#7
hivel=127
lokey=A7
lovel=0
offset=538
pitch_keycenter=A#7
sample=Piccolo_overblown_stacc_FF_A#6_RR2.opus
tune=-30.00
</region>

<region>
hikey=C6
hivel=127
lokey=B5
lovel=0
offset=12
pitch_keycenter=C6
sample=Piccolo_overblown_stacc_FF_C5_RR2.opus
tune=-30.00
</region>

<region>
hikey=C7
hivel=127
lokey=B6
lovel=0
offset=436
pitch_keycenter=C7
sample=Piccolo_overblown_stacc_FF_C6_RR2.opus
tune=-30.00
</region>

<region>
hikey=C8
hivel=127
lokey=B7
lovel=0
offset=1038
pitch_keycenter=C8
sample=Piccolo_overblown_stacc_FF_C7_RR2.opus
tune=-30.00
</region>

<region>
hivel=127
key=D5
lovel=0
offset=3580
sample=Piccolo_overblown_stacc_FF_D4_RR2.opus
tune=-30.00
</region>

<region>
hikey=D6
hivel=127
lokey=C#6
lovel=0
offset=426
pitch_keycenter=D6
sample=Piccolo_overblown_stacc_FF_D5_RR2.opus
tune=-30.00
</region>

<region>
hikey=D7
hivel=127
lokey=C#7
lovel=0
offset=170
pitch_keycenter=D7
sample=Piccolo_overblown_stacc_FF_D6_RR2.opus
tune=-30.00
</region>

<region>
hikey=E5
hivel=127
lokey=D#5
lovel=0
offset=1799
pitch_keycenter=E5
sample=Piccolo_overblown_stacc_FF_E4_RR2.opus
tune=-30.00
</region>

<region>
hikey=E6
hivel=127
lokey=D#6
lovel=0
offset=1461
pitch_keycenter=E6
sample=Piccolo_overblown_stacc_FF_E5_RR2.opus
tune=-30.00
</region>

<region>
hikey=E7
hivel=127
lokey=D#7
lovel=0
offset=356
pitch_keycenter=E7
sample=Piccolo_overblown_stacc_FF_E6_RR2.opus
tune=-30.00
</region>

<region>
hikey=F#5
hivel=127
lokey=F5
lovel=0
offset=405
pitch_keycenter=F#5
sample=Piccolo_overblown_stacc_FF_F#4_RR2.opus
tune=-30.00
</region>

<region>
hikey=F#6
hivel=127
lokey=F6
lovel=0
offset=528
pitch_keycenter=F#6
sample=Piccolo_overblown_stacc_FF_F#5_RR2.opus
tune=-30.00
</region>

<region>
hikey=F#7
hivel=127
lokey=F7
lovel=0
offset=57
pitch_keycenter=F#7
sample=Piccolo_overblown_stacc_FF_F#6_RR2.opus
tune=-30.00
</region>

<region>
hikey=G#5
hivel=127
lokey=G5
lovel=0
offset=340
pitch_keycenter=G#5
sample=Piccolo_overblown_stacc_FF_G#4_RR2.opus
tune=-30.00
</region>

<region>
hikey=G#6
hivel=127
lokey=G6
lovel=0
offset=117
pitch_keycenter=G#6
sample=Piccolo_overblown_stacc_FF_G#5_RR2.opus
tune=-30.00
</region>

<region>
hikey=G#7
hivel=127
lokey=G7
lovel=0
offset=552
pitch_keycenter=G#7
sample=Piccolo_overblown_stacc_FF_G#6_RR2.opus
tune=-30.00
</region>
</group>

<group>
group_label=RR3
seq_length=4
seq_position=3

<region>
hikey=A#5
hivel=127
lokey=A5
lovel=0
offset=536
pitch_keycenter=A#5
sample=Piccolo_overblown_stacc_FF_A#4_RR3.opus
tune=-30.00
</region>

<region>
hikey=A#6
hivel=127
lokey=A6
lovel=0
offset=639
pitch_keycenter=A#6
sample=Piccolo_overblown_stacc_FF_A#5_RR3.opus
tune=-30.00
</region>

<region>
hikey=A#7
hivel=127
lokey=A7
lovel=0
offset=512
pitch_keycenter=A#7
sample=Piccolo_overblown_stacc_FF_A#6_RR3.opus
tune=-30.00
</region>

<region>
hikey=C6
hivel=127
lokey=B5
lovel=0
offset=6
pitch_keycenter=C6
sample=Piccolo_overblown_stacc_FF_C5_RR3.opus
tune=-30.00
</region>

<region>
hikey=C7
hivel=127
lokey=B6
lovel=0
offset=358
pitch_keycenter=C7
sample=Piccolo_overblown_stacc_FF_C6_RR3.opus
tune=-30.00
</region>

<region>
hikey=C8
hivel=127
lokey=B7
lovel=0
offset=1381
pitch_keycenter=C8
sample=Piccolo_overblown_stacc_FF_C7_RR3.opus
tune=-30.00
</region>

<region>
hivel=127
key=D5
lovel=0
offset=4025
sample=Piccolo_overblown_stacc_FF_D4_RR3.opus
tune=-30.00
</region>

<region>
hikey=D6
hivel=127
lokey=C#6
lovel=0
offset=446
pitch_keycenter=D6
sample=Piccolo_overblown_stacc_FF_D5_RR3.opus
tune=-30.00
</region>

<region>
hikey=D7
hivel=127
lokey=C#7
lovel=0
pitch_keycenter=D7
sample=Piccolo_overblown_stacc_FF_D6_RR3.opus
tune=-30.00
</region>

<region>
hikey=E5
hivel=127
lokey=D#5
lovel=0
offset=5385
pitch_keycenter=E5
sample=Piccolo_overblown_stacc_FF_E4_RR3.opus
tune=-30.00
</region>

<region>
hikey=E6
hivel=127
lokey=D#6
lovel=0
offset=659
pitch_keycenter=E6
sample=Piccolo_overblown_stacc_FF_E5_RR3.opus
tune=-30.00
</region>

<region>
hikey=E7
hivel=127
lokey=D#7
lovel=0
pitch_keycenter=E7
sample=Piccolo_overblown_stacc_FF_E6_RR3.opus
tune=-30.00
</region>

<region>
hikey=F#5
hivel=127
lokey=F5
lovel=0
offset=871
pitch_keycenter=F#5
sample=Piccolo_overblown_stacc_FF_F#4_RR3.opus
tune=-30.00
</region>

<region>
hikey=F#6
hivel=127
lokey=F6
lovel=0
offset=414
pitch_keycenter=F#6
sample=Piccolo_overblown_stacc_FF_F#5_RR3.opus
tune=-30.00
</region>

<region>
hikey=F#7
hivel=127
lokey=F7
lovel=0
offset=72
pitch_keycenter=F#7
sample=Piccolo_overblown_stacc_FF_F#6_RR3.opus
tune=-30.00
</region>

<region>
hikey=G#5
hivel=127
lokey=G5
lovel=0
offset=557
pitch_keycenter=G#5
sample=Piccolo_overblown_stacc_FF_G#4_RR3.opus
tune=-30.00
</region>

<region>
hikey=G#6
hivel=127
lokey=G6
lovel=0
offset=236
pitch_keycenter=G#6
sample=Piccolo_overblown_stacc_FF_G#5_RR3.opus
tune=-30.00
</region>

<region>
hikey=G#7
hivel=127
lokey=G7
lovel=0
offset=571
pitch_keycenter=G#7
sample=Piccolo_overblown_stacc_FF_G#6_RR3.opus
tune=-30.00
</region>
</group>

<group>
group_label=RR4
seq_length=4
seq_position=4

<region>
hikey=A#5
hivel=127
lokey=A5
lovel=0
offset=344
pitch_keycenter=A#5
sample=Piccolo_overblown_stacc_FF_A#4_RR4.opus
tune=-30.00
</region>

<region>
hikey=A#6
hivel=127
lokey=A6
lovel=0
offset=357
pitch_keycenter=A#6
sample=Piccolo_overblown_stacc_FF_A#5_RR4.opus
tune=-30.00
</region>

<region>
hikey=A#7
hivel=127
lokey=A7
lovel=0
offset=1051
pitch_keycenter=A#7
sample=Piccolo_overblown_stacc_FF_A#6_RR4.opus
tune=-30.00
</region>

<region>
hikey=C6
hivel=127
lokey=B5
lovel=0
offset=154
pitch_keycenter=C6
sample=Piccolo_overblown_stacc_FF_C5_RR4.opus
tune=-30.00
</region>

<region>
hikey=C7
hivel=127
lokey=B6
lovel=0
offset=107
pitch_keycenter=C7
sample=Piccolo_overblown_stacc_FF_C6_RR4.opus
tune=-30.00
</region>

<region>
hikey=C8
hivel=127
lokey=B7
lovel=0
offset=1091
pitch_keycenter=C8
sample=Piccolo_overblown_stacc_FF_C7_RR4.opus
tune=-30.00
</region>

<region>
hivel=127
key=D5
lovel=0
offset=3582
sample=Piccolo_overblown_stacc_FF_D4_RR4.opus
tune=-30.00
</region>

<region>
hikey=D6
hivel=127
lokey=C#6
lovel=0
offset=303
pitch_keycenter=D6
sample=Piccolo_overblown_stacc_FF_D5_RR4.opus
tune=-30.00
</region>

<region>
hikey=D7
hivel=127
lokey=C#7
lovel=0
offset=304
pitch_keycenter=D7
sample=Piccolo_overblown_stacc_FF_D6_RR4.opus
tune=-30.00
</region>

<region>
hikey=E5
hivel=127
lokey=D#5
lovel=0
offset=1762
pitch_keycenter=E5
sample=Piccolo_overblown_stacc_FF_E4_RR4.opus
tune=-30.00
</region>

<region>
hikey=E6
hivel=127
lokey=D#6
lovel=0
offset=394
pitch_keycenter=E6
sample=Piccolo_overblown_stacc_FF_E5_RR4.opus
tune=-30.00
</region>

<region>
hikey=E7
hivel=127
lokey=D#7
lovel=0
offset=157
pitch_keycenter=E7
sample=Piccolo_overblown_stacc_FF_E6_RR4.opus
tune=-30.00
</region>

<region>
hikey=F#5
hivel=127
lokey=F5
lovel=0
offset=717
pitch_keycenter=F#5
sample=Piccolo_overblown_stacc_FF_F#4_RR4.opus
tune=-30.00
</region>

<region>
hikey=F#6
hivel=127
lokey=F6
lovel=0
offset=499
pitch_keycenter=F#6
sample=Piccolo_overblown_stacc_FF_F#5_RR4.opus
tune=-30.00
</region>

<region>
hikey=F#7
hivel=127
lokey=F7
lovel=0
offset=454
pitch_keycenter=F#7
sample=Piccolo_overblown_stacc_FF_F#6_RR4.opus
tune=-30.00
</region>

<region>
hikey=G#5
hivel=127
lokey=G5
lovel=0
offset=865
pitch_keycenter=G#5
sample=Piccolo_overblown_stacc_FF_G#4_RR4.opus
tune=-30.00
</region>

<region>
hikey=G#6
hivel=127
lokey=G6
lovel=0
offset=257
pitch_keycenter=G#6
sample=Piccolo_overblown_stacc_FF_G#5_RR4.opus
tune=-30.00
</region>

<region>
hikey=G#7
hivel=127
lokey=G7
lovel=0
offset=430
pitch_keycenter=G#7
sample=Piccolo_overblown_stacc_FF_G#6_RR4.opus
tune=-30.00
</region>
</group>